<!-- Generated by IcoMoon.io -->
<svg version="1.1" xmlns="http://www.w3.org/2000/svg" width="60" height="60" viewBox="0 0 60 60">
<title>01d</title>
<path fill="#fff" d="M30 16.875c-7.236 0-13.125 5.889-13.125 13.125s5.889 13.125 13.125 13.125 13.125-5.889 13.125-13.125c0-7.236-5.889-13.125-13.125-13.125zM30 39.375c-5.178 0-9.375-4.197-9.375-9.375s4.197-9.375 9.375-9.375 9.375 4.197 9.375 9.375-4.197 9.375-9.375 9.375zM30 13.125c1.035 0 1.875-0.84 1.875-1.875v-3.75c0-1.035-0.84-1.875-1.875-1.875s-1.875 0.84-1.875 1.875v3.75c0 1.035 0.84 1.875 1.875 1.875zM30 46.875c-1.035 0-1.875 0.84-1.875 1.875v3.75c0 1.035 0.84 1.875 1.875 1.875s1.875-0.84 1.875-1.875v-3.75c0-1.035-0.84-1.875-1.875-1.875zM44.583 18.066l2.651-2.651c0.732-0.732 0.732-1.919 0-2.651s-1.919-0.732-2.651 0l-2.651 2.651c-0.732 0.732-0.732 1.919 0 2.651s1.919 0.732 2.651 0zM15.417 41.934l-2.651 2.651c-0.732 0.732-0.732 1.919 0 2.651s1.919 0.732 2.651 0l2.651-2.651c0.732-0.735 0.732-1.919 0-2.651s-1.919-0.735-2.651 0zM13.125 30c0-1.035-0.84-1.875-1.875-1.875h-3.75c-1.035 0-1.875 0.84-1.875 1.875s0.84 1.875 1.875 1.875h3.75c1.035 0 1.875-0.84 1.875-1.875zM52.5 28.125h-3.75c-1.035 0-1.875 0.84-1.875 1.875s0.84 1.875 1.875 1.875h3.75c1.035 0 1.875-0.84 1.875-1.875s-0.84-1.875-1.875-1.875zM15.415 18.066c0.733 0.732 1.919 0.732 2.651 0s0.733-1.919 0-2.651l-2.651-2.651c-0.732-0.732-1.919-0.732-2.651 0s-0.732 1.919 0 2.651l2.651 2.651zM44.585 41.931c-0.735-0.732-1.919-0.732-2.651 0s-0.735 1.919 0 2.651l2.651 2.651c0.732 0.732 1.919 0.732 2.651 0s0.732-1.919 0-2.651l-2.651-2.651z"></path>
</svg>
