<!-- Generated by IcoMoon.io -->
<svg version="1.1" xmlns="http://www.w3.org/2000/svg" width="60" height="60" viewBox="0 0 60 60">
<title>02d</title>
<path fill="#fff" d="M24.375 7.5c1.035 0 1.875-0.84 1.875-1.875v-3.75c0-1.035-0.84-1.875-1.875-1.875s-1.875 0.84-1.875 1.875v3.75c0 1.035 0.84 1.875 1.875 1.875zM38.958 12.441l2.651-2.651c0.732-0.732 0.732-1.919 0-2.651s-1.919-0.732-2.651 0l-2.651 2.651c-0.732 0.732-0.732 1.919 0 2.651s1.919 0.732 2.651 0zM1.875 26.25h3.75c1.035 0 1.875-0.84 1.875-1.875s-0.84-1.875-1.875-1.875h-3.75c-1.035 0-1.875 0.84-1.875 1.875s0.84 1.875 1.875 1.875zM41.25 24.375c0 1.035 0.84 1.875 1.875 1.875h3.75c1.035 0 1.875-0.84 1.875-1.875s-0.84-1.875-1.875-1.875h-3.75c-1.035 0-1.875 0.84-1.875 1.875zM9.79 12.441c0.733 0.732 1.919 0.732 2.651 0s0.733-1.919 0-2.651l-2.651-2.651c-0.732-0.732-1.919-0.732-2.651 0s-0.732 1.919 0 2.651l2.651 2.651zM46.875 30c-0.623 0-1.238 0.044-1.851 0.132-1.965-2.681-4.585-4.727-7.554-6.035-0.151-7.104-5.955-12.847-13.096-12.847-7.236 0-13.125 5.889-13.125 13.125 0 2.044 0.508 3.955 1.348 5.676-6.987 0.286-12.598 6.020-12.598 13.074 0 7.236 5.889 13.125 13.125 13.125 1.604 0 3.174-0.293 4.653-0.859 3.393 2.959 7.71 4.609 12.222 4.609 4.517 0 8.828-1.65 12.222-4.609 1.479 0.566 3.049 0.859 4.653 0.859 7.236 0 13.125-5.889 13.125-13.125s-5.889-13.125-13.125-13.125zM24.375 15c4.665 0 8.503 3.418 9.224 7.881-1.174-0.234-2.373-0.381-3.599-0.381-5.383 0-10.371 2.322-13.872 6.24-0.696-1.309-1.128-2.778-1.128-4.365 0-5.178 4.197-9.375 9.375-9.375zM46.875 52.5c-2.007 0-3.857-0.645-5.383-1.719-2.751 3.315-6.848 5.469-11.492 5.469s-8.74-2.153-11.492-5.469c-1.523 1.074-3.377 1.719-5.383 1.719-5.178 0-9.375-4.197-9.375-9.375s4.197-9.375 9.375-9.375c0.908 0 1.765 0.171 2.593 0.415 0.33 0.093 0.664 0.166 0.974 0.295 0.513-1.003 1.157-1.921 1.873-2.783 2.739-3.296 6.814-5.427 11.436-5.427 1.187 0 2.324 0.171 3.428 0.435 1.238 0.293 2.407 0.737 3.496 1.323 2.729 1.45 4.971 3.696 6.382 6.453 1.101-0.454 2.305-0.711 3.569-0.711 5.178 0 9.375 4.197 9.375 9.375s-4.197 9.375-9.375 9.375z"></path>
</svg>
