<!-- Generated by IcoMoon.io -->
<svg version="1.1" xmlns="http://www.w3.org/2000/svg" width="60" height="60" viewBox="0 0 60 60">
<title>02n</title>
<path fill="#fff" d="M50.984 30.723c0.571-0.425 1.15-0.842 1.667-1.36 1.548-1.55 2.727-3.437 3.491-5.608 0.244-0.679 0.071-1.44-0.442-1.948-0.51-0.513-1.267-0.686-1.948-0.444-4.148 1.465-8.635 0.469-11.707-2.607-3.076-3.076-4.077-7.561-2.607-11.707 0.239-0.681 0.068-1.438-0.444-1.951-0.508-0.508-1.267-0.684-1.948-0.444-2.173 0.771-4.058 1.948-5.606 3.496-3.931 3.926-5.154 9.492-3.806 14.507-5.068 0.647-9.624 3.34-12.659 7.476-0.613-0.088-1.228-0.132-1.851-0.132-7.236 0-13.125 5.889-13.125 13.125s5.889 13.125 13.125 13.125c1.604 0 3.174-0.293 4.653-0.859 3.393 2.959 7.71 4.609 12.222 4.609 4.517 0 8.828-1.65 12.222-4.609 1.479 0.566 3.049 0.859 4.653 0.859 7.236 0 13.125-5.889 13.125-13.125 0-5.794-3.799-10.667-9.016-12.403zM34.092 10.801c0.298-0.303 0.618-0.583 0.955-0.847-0.264 4.216 1.257 8.364 4.348 11.453 3.091 3.091 7.239 4.609 11.455 4.348-1.616 2.061-3.843 3.342-6.226 3.889-3.208-4.072-7.922-6.636-13.12-7.053-1.438-3.98-0.596-8.606 2.588-11.79zM46.875 52.5c-2.007 0-3.857-0.645-5.383-1.719-2.751 3.315-6.848 5.469-11.492 5.469s-8.74-2.153-11.492-5.469c-1.523 1.074-3.376 1.719-5.383 1.719-5.178 0-9.375-4.197-9.375-9.375s4.197-9.375 9.375-9.375c1.267 0 2.468 0.256 3.567 0.71 2.366-4.612 7.002-7.839 12.458-8.15 0.286-0.017 0.564-0.061 0.85-0.061 1.514 0 2.966 0.237 4.336 0.654 1.851 0.566 3.538 1.489 5.002 2.678 1.399 1.135 2.571 2.527 3.494 4.089 0.156 0.264 0.332 0.513 0.474 0.789 1.101-0.454 2.305-0.71 3.569-0.71 5.178 0 9.375 4.197 9.375 9.375s-4.197 9.375-9.375 9.375z"></path>
</svg>
