<!-- Generated by IcoMoon.io -->
<svg version="1.1" xmlns="http://www.w3.org/2000/svg" width="60" height="60" viewBox="0 0 60 60">
<title>04d</title>
<path fill="#fff" d="M60 28.125c0-5.762-4.688-10.447-10.449-10.447-0.281 0-0.559 0.012-0.837 0.034-2.71-3.381-6.794-5.388-11.213-5.388-4.417 0-8.503 2.007-11.213 5.388-0.278-0.022-0.559-0.034-0.842-0.034-5.757-0-10.444 4.685-10.444 10.447 0 0.603 0.081 1.184 0.176 1.763-0.064 0.083-0.139 0.159-0.2 0.244-0.613-0.088-1.228-0.132-1.851-0.132-7.236 0-13.125 5.889-13.125 13.125s5.889 13.125 13.125 13.125c1.604 0 3.174-0.293 4.653-0.859 3.393 2.959 7.71 4.609 12.222 4.609 4.517 0 8.828-1.65 12.222-4.609 1.479 0.566 3.049 0.859 4.653 0.859 7.236 0 13.125-5.889 13.125-13.125 0-3.010-1.060-5.752-2.773-7.969 1.709-1.863 2.773-4.316 2.773-7.031zM46.875 52.5c-2.007 0-3.857-0.644-5.383-1.719-2.751 3.315-6.848 5.469-11.492 5.469s-8.74-2.153-11.492-5.469c-1.523 1.074-3.376 1.719-5.383 1.719-5.178 0-9.375-4.197-9.375-9.375s4.197-9.375 9.375-9.375c1.267 0 2.468 0.256 3.567 0.71 0.066-0.124 0.146-0.234 0.212-0.354 0.659-1.204 1.472-2.307 2.422-3.286 2.705-2.803 6.465-4.57 10.674-4.57 5.825 0 10.82 3.359 13.306 8.21 0.662-0.271 1.367-0.447 2.095-0.564l1.475-0.146c1.445 0 2.798 0.356 4.021 0.938 1.326 0.635 2.463 1.567 3.357 2.717 1.23 1.584 1.997 3.557 1.997 5.72 0 5.178-4.197 9.375-9.375 9.375zM54.558 32.534c-2.166-1.577-4.805-2.534-7.683-2.534-0.623 0-1.238 0.044-1.851 0.132-3.501-4.77-9.026-7.632-15.024-7.632-3.999 0-7.771 1.294-10.891 3.555 0.876-2.678 3.367-4.626 6.335-4.626 0.908 0 1.765 0.183 2.549 0.508 1.78-3.464 5.347-5.862 9.507-5.862s7.729 2.397 9.502 5.862c0.789-0.325 1.65-0.508 2.549-0.508 3.701 0 6.699 2.998 6.699 6.697 0 1.697-0.652 3.227-1.692 4.409z"></path>
</svg>
