<!-- Generated by IcoMoon.io -->
<svg version="1.1" xmlns="http://www.w3.org/2000/svg" width="60" height="60" viewBox="0 0 60 60">
<title>10d</title>
<path fill="#fff" d="M46.875 11.25c-0.623 0-1.238 0.044-1.851 0.132-3.501-4.77-9.026-7.632-15.024-7.632s-11.521 2.861-15.024 7.632c-0.613-0.088-1.228-0.132-1.851-0.132-7.236 0-13.125 5.889-13.125 13.125s5.889 13.125 13.125 13.125c1.604 0 3.174-0.293 4.653-0.859 3.393 2.959 7.71 4.609 12.222 4.609 4.517 0 8.828-1.65 12.222-4.609 1.479 0.566 3.049 0.859 4.653 0.859 7.236 0 13.125-5.889 13.125-13.125s-5.889-13.125-13.125-13.125zM46.875 33.75c-2.007 0-3.857-0.645-5.383-1.719-2.751 3.315-6.848 5.469-11.492 5.469s-8.74-2.153-11.492-5.469c-1.523 1.074-3.377 1.719-5.383 1.719-5.178 0-9.375-4.197-9.375-9.375s4.197-9.375 9.375-9.375c1.267 0 2.468 0.259 3.567 0.713 2.488-4.853 7.483-8.213 13.308-8.213s10.82 3.359 13.306 8.213c1.101-0.454 2.305-0.713 3.569-0.713 5.178 0 9.375 4.197 9.375 9.375s-4.197 9.375-9.375 9.375zM26.25 52.5c0 2.073 1.677 3.75 3.75 3.75s3.75-1.677 3.75-3.75-3.75-7.5-3.75-7.5-3.75 5.427-3.75 7.5z"></path>
</svg>
