<!-- Generated by IcoMoon.io -->
<svg version="1.1" xmlns="http://www.w3.org/2000/svg" width="60" height="60" viewBox="0 0 60 60">
<title>11d</title>
<path fill="#fff" d="M22.5 45l3.75 3.75-3.75 11.25 11.25-11.25-3.75-3.75 3.75-7.5-11.25 7.5zM60 15.801c0-5.759-4.688-10.444-10.449-10.444-0.281 0-0.559 0.010-0.837 0.032-2.71-3.379-6.794-5.388-11.213-5.388-4.417 0-8.503 2.009-11.213 5.388-0.278-0.022-0.559-0.032-0.842-0.032-5.757 0-10.444 4.685-10.444 10.444 0 0.603 0.081 1.187 0.176 1.763-0.064 0.083-0.139 0.159-0.2 0.244-0.613-0.088-1.228-0.132-1.851-0.132-7.236 0-13.125 5.889-13.125 13.125s5.889 13.125 13.125 13.125c1.604 0 3.174-0.293 4.653-0.859 0.129 0.112 0.283 0.19 0.415 0.3l3.318-2.212c-1.106-0.784-2.139-1.655-3.003-2.695-1.523 1.072-3.376 1.716-5.383 1.716-5.178 0-9.375-4.194-9.375-9.375 0-5.176 4.197-9.375 9.375-9.375 1.267 0 2.468 0.259 3.567 0.713 0.066-0.127 0.146-0.234 0.212-0.356 0.659-1.204 1.472-2.305 2.422-3.286 2.705-2.8 6.465-4.57 10.674-4.57 5.825 0 10.82 3.359 13.306 8.213 0.662-0.273 1.367-0.449 2.095-0.566l1.475-0.146c1.445 0 2.798 0.356 4.021 0.938 1.326 0.635 2.463 1.567 3.357 2.72 1.23 1.584 1.997 3.555 1.997 5.718 0 5.181-4.197 9.375-9.375 9.375-2.007 0-3.857-0.645-5.383-1.716-1.641 1.978-3.801 3.464-6.228 4.402l-0.701 1.399 2.139 2.139c1.999-0.779 3.87-1.897 5.52-3.333 1.479 0.566 3.049 0.859 4.653 0.859 7.236 0 13.125-5.889 13.125-13.125 0-3.008-1.060-5.752-2.773-7.969 1.709-1.86 2.773-4.314 2.773-7.031zM54.558 20.21c-2.166-1.575-4.805-2.534-7.683-2.534-0.623 0-1.238 0.044-1.851 0.132-3.501-4.768-9.026-7.632-15.024-7.632-3.999 0-7.771 1.296-10.891 3.557 0.876-2.678 3.367-4.626 6.335-4.626 0.908 0 1.765 0.183 2.549 0.508 1.78-3.467 5.347-5.864 9.507-5.864s7.729 2.397 9.502 5.864c0.789-0.325 1.65-0.508 2.549-0.508 3.701 0 6.699 2.998 6.699 6.694 0 1.699-0.652 3.23-1.692 4.409z"></path>
</svg>
