<!-- Generated by IcoMoon.io -->
<svg version="1.1" xmlns="http://www.w3.org/2000/svg" width="60" height="60" viewBox="0 0 60 60">
<title>13d</title>
<path fill="#fff" d="M38.208 51.995l-2.109-1.216c0.064-0.366 0.112-0.74 0.112-1.128s-0.049-0.762-0.117-1.128l2.114-1.218c0.986-0.576 1.323-1.843 0.757-2.825-0.571-0.994-1.836-1.333-2.827-0.762l-2.131 1.23c-0.571-0.486-1.216-0.867-1.934-1.125v-2.449c0-1.145-0.93-2.073-2.073-2.073s-2.070 0.928-2.070 2.073v2.446c-0.718 0.256-1.365 0.642-1.936 1.128l-2.126-1.23c-0.994-0.571-2.261-0.234-2.832 0.759-0.571 0.986-0.227 2.256 0.762 2.827l2.105 1.216c-0.068 0.369-0.112 0.742-0.112 1.13s0.044 0.762 0.112 1.128l-2.104 1.216c-0.991 0.571-1.333 1.846-0.762 2.835s1.838 1.326 2.827 0.754l2.129-1.223c0.571 0.483 1.218 0.864 1.939 1.121v2.454c0 1.142 0.928 2.065 2.070 2.065s2.073-0.923 2.073-2.065v-2.454c0.718-0.256 1.37-0.637 1.936-1.128l2.129 1.23c0.991 0.571 2.256 0.234 2.827-0.754s0.234-2.256-0.757-2.834zM30 51.724c-1.143 0-2.073-0.93-2.073-2.073s0.93-2.068 2.073-2.068 2.070 0.925 2.070 2.068-0.928 2.073-2.070 2.073zM55.566 46.436l-1.416-0.376c-0.034-0.449-0.142-0.876-0.339-1.287l1.028-1.028c0.483-0.483 0.481-1.265 0-1.741-0.478-0.481-1.255-0.483-1.738 0l-1.030 1.025c-0.405-0.19-0.837-0.3-1.284-0.337l-0.376-1.414c-0.176-0.654-0.85-1.047-1.509-0.872-0.657 0.178-1.040 0.852-0.869 1.509l0.376 1.394c-0.186 0.127-0.361 0.269-0.527 0.43-0.161 0.166-0.298 0.342-0.425 0.523l-1.394-0.376c-0.657-0.176-1.335 0.22-1.511 0.872-0.176 0.659 0.22 1.331 0.869 1.509l1.406 0.378c0.039 0.442 0.151 0.874 0.349 1.284l-1.033 1.033c-0.478 0.481-0.476 1.257 0.005 1.736 0.478 0.478 1.255 0.483 1.733 0.005l1.035-1.035c0.405 0.2 0.84 0.312 1.289 0.347l0.371 1.409c0.181 0.657 0.85 1.047 1.509 0.872 0.654-0.176 1.050-0.849 0.874-1.514l-0.376-1.394c0.176-0.124 0.356-0.264 0.523-0.425 0.161-0.164 0.298-0.344 0.425-0.525l1.397 0.376c0.657 0.176 1.333-0.217 1.506-0.869 0.176-0.654-0.212-1.328-0.867-1.509zM51.365 47.219c-0.483 0.483-1.262 0.481-1.743 0-0.476-0.476-0.481-1.257 0-1.741 0.481-0.478 1.262-0.478 1.743 0 0.476 0.481 0.476 1.265 0 1.741zM13.938 40.137l-1.392 0.374c-0.129-0.176-0.264-0.354-0.427-0.52-0.166-0.161-0.342-0.3-0.525-0.425l0.374-1.399c0.176-0.657-0.215-1.333-0.864-1.506-0.659-0.176-1.333 0.215-1.509 0.869l-0.381 1.414c-0.447 0.037-0.874 0.146-1.282 0.339l-1.033-1.028c-0.483-0.483-1.26-0.481-1.738 0-0.481 0.481-0.481 1.26 0 1.741l1.028 1.028c-0.193 0.41-0.305 0.842-0.339 1.287l-1.411 0.376c-0.659 0.181-1.050 0.85-0.874 1.509 0.178 0.654 0.852 1.040 1.511 0.869l1.392-0.379c0.124 0.188 0.264 0.364 0.432 0.527 0.161 0.161 0.337 0.305 0.52 0.425l-0.374 1.394c-0.176 0.659 0.215 1.338 0.869 1.514 0.659 0.176 1.328-0.215 1.504-0.872l0.381-1.406c0.447-0.037 0.879-0.149 1.289-0.344l1.030 1.030c0.479 0.483 1.255 0.474 1.738-0.005 0.476-0.476 0.483-1.255 0-1.736l-1.033-1.033c0.198-0.405 0.315-0.842 0.344-1.289l1.414-0.374c0.652-0.178 1.043-0.85 0.867-1.509-0.176-0.652-0.85-1.042-1.511-0.871zM10.378 43.472c-0.481 0.481-1.26 0.481-1.743 0-0.476-0.478-0.476-1.262 0-1.738 0.483-0.478 1.262-0.478 1.743 0s0.476 1.26 0 1.738zM60 20.625c0-7.236-5.889-13.125-13.125-13.125-0.623 0-1.238 0.044-1.851 0.132-3.501-4.77-9.026-7.632-15.024-7.632s-11.521 2.861-15.024 7.632c-0.613-0.088-1.228-0.132-1.851-0.132-7.236 0-13.125 5.889-13.125 13.125s5.889 13.125 13.125 13.125c1.604 0 3.174-0.293 4.653-0.859 3.393 2.959 7.71 4.609 12.222 4.609 4.517 0 8.828-1.65 12.222-4.609 1.479 0.566 3.049 0.859 4.653 0.859 7.236 0 13.125-5.889 13.125-13.125zM41.492 28.281c-2.751 3.315-6.848 5.469-11.492 5.469s-8.74-2.153-11.492-5.469c-1.523 1.074-3.377 1.719-5.383 1.719-5.178 0-9.375-4.197-9.375-9.375s4.197-9.375 9.375-9.375c1.267 0 2.468 0.259 3.567 0.713 2.488-4.853 7.483-8.213 13.308-8.213s10.82 3.359 13.306 8.213c1.101-0.454 2.305-0.713 3.569-0.713 5.178 0 9.375 4.197 9.375 9.375s-4.197 9.375-9.375 9.375c-2.007 0-3.857-0.645-5.383-1.719z"></path>
</svg>
