<!-- Generated by IcoMoon.io -->
<svg version="1.1" xmlns="http://www.w3.org/2000/svg" width="60" height="60" viewBox="0 0 60 60">
<title>50d</title>
<path fill="#fff" d="M13.125 18.75h33.75c1.035 0 1.875-0.84 1.875-1.875s-0.84-1.875-1.875-1.875h-33.75c-1.035 0-1.875 0.84-1.875 1.875s0.84 1.875 1.875 1.875zM46.875 22.5h-33.75c-1.035 0-1.875 0.84-1.875 1.875s0.84 1.875 1.875 1.875h33.75c1.035 0 1.875-0.84 1.875-1.875s-0.84-1.875-1.875-1.875zM46.875 30h-33.75c-1.035 0-1.875 0.84-1.875 1.875s0.84 1.875 1.875 1.875h33.75c1.035 0 1.875-0.84 1.875-1.875s-0.84-1.875-1.875-1.875zM46.875 37.5h-33.75c-1.035 0-1.875 0.84-1.875 1.875s0.84 1.875 1.875 1.875h33.75c1.035 0 1.875-0.84 1.875-1.875s-0.84-1.875-1.875-1.875z"></path>
</svg>
